<svg class="svg-icon" style="width: 1em; height: 1em;vertical-align: middle;fill: currentColor;overflow: hidden;" viewBox="0 0 1024 1024" version="1.1" xmlns="http://www.w3.org/2000/svg"><path d="M512 512m-385.7322666666667 0a385.7322666666667 385.7322666666667 0 1 0 771.4645333333334 0 385.7322666666667 385.7322666666667 0 1 0-771.4645333333334 0Z" fill="#067B4B" /><path d="M354.7562666666667 538.8544l24.362666666666666-69.49546666666667 24.362666666666666 69.49546666666667h-48.72533333333333z m75.5712 77.50826666666667h57.873066666666666l-79.45386666666667-208.73386666666664h-59.25546666666666L270.0373333333334 616.3626666666667h57.86453333333333l12.458666666666666-36.25813333333333h77.51679999999999l12.450133333333333 36.25813333333333z m135.92746666666667-164.99200000000002h17.9968c19.925333333333334 0 29.9008 8.6784 29.9008 26.026666666666664s-9.975466666666668 26.026666666666664-29.9008 26.026666666666664h-17.9968v-52.05333333333333z m0 95.78666666666666h32.110933333333335c23.441066666666664 0 41.38666666666666-6.0927999999999995 53.84533333333333-18.269866666666665 12.4672-12.194133333333333 18.688-29.346133333333334 18.688-51.498666666666665s-6.2208-39.31306666666667-18.688-51.49013333333333c-12.458666666666666-12.185599999999999-30.40426666666667-18.278399999999998-53.84533333333333-18.278399999999998H512V616.3626666666667h54.25493333333333v-69.20533333333333zM699.6906666666666 407.62879999999996V616.3626666666667h54.28053333333333V407.62879999999996H699.6906666666666z" fill="#EDC949" /></svg>